<mxfile host="www.draw.io" modified="2020-03-02T13:02:45.002Z" agent="Mozilla/5.0 (Windows NT 6.1; WOW64) AppleWebKit/537.36 (KHTML, like Gecko) Chrome/55.0.2883.87 Safari/537.36" etag="quGKpFRSXs0BQ6XZQU0K" version="12.7.9" type="github">
  <diagram id="PHuhtgYlsc9-xKTqlSNl" name="第 1 页">
    <mxGraphModel dx="2023" dy="1109" grid="1" gridSize="10" guides="1" tooltips="1" connect="1" arrows="1" fold="1" page="1" pageScale="1" pageWidth="1169" pageHeight="827" math="0" shadow="0">
      <root>
        <mxCell id="0" />
        <mxCell id="1" parent="0" />
        <mxCell id="ykSHt0LYnPtIAfBF91yv-1" value="" style="rounded=1;whiteSpace=wrap;html=1;" vertex="1" parent="1">
          <mxGeometry x="520" y="530" width="120" height="60" as="geometry" />
        </mxCell>
      </root>
    </mxGraphModel>
  </diagram>
</mxfile>
